<!-- Generated by IcoMoon.io -->
<svg version="1.1" xmlns="http://www.w3.org/2000/svg" width="41" height="32" viewBox="0 0 41 32">
<path fill="#564341" d="M20.668 11.118c0.356-0.641 0.784-1.283 1.283-1.782 1.14-1.14 2.993-1.283 4.561-0.927 0.499 0.143 0.927 0.356 1.283 0.713l0.285 0.214 0.428 0.356h0.071l0.071-0.428 0.071-0.855c0-0.214-0.071-0.285-0.214-0.356l-1.283-0.285-1.996-0.143c-0.784-0.071-2.281-0.214-2.138-1.354 0.071-0.926 0.927-1.782 1.639-2.352 1.967-1.747 4.363-3.056 7.007-3.751l0.12-0.027 1.996-0.143c0.641 0.071 0.713 0.641 0.428 1.069-0.214 0.285-0.428 0.57-0.784 0.784l-1.924 1.71v0.071c0.784-0.071 1.497 0 2.138 0.143 0.926 0.214 1.71 0.713 1.71 1.71 0.071 0.713-0.428 1.568-0.926 2.138-0.57 0.57-1.283 1.14-1.996 1.639v0.071c0.641 0 1.14 0.143 1.568 0.57 0.855 0.641 1.354 1.568 1.568 2.637h0.071l1.639 0.214c0.499 0.214 1.212 0.499 1.639 0.855 1.319 1.118 2.15 2.776 2.15 4.629 0 0.482-0.056 0.95-0.162 1.399l0.008-0.041c-0.071 0.356-0.285 0.641-0.641 0.855l-0.071 0.071c-0.214 0.356-0.356 0.784-0.641 1.14l-0.285 0.499c-0.57 0.641-1.568 1.212-2.352 1.425l-0.214 0.143-0.285 0.356-0.356 1.069 0.285 0.356c0.641 0.285 1.14 0.784 1.497 1.497 0.143 0.285 0.285 0.57 0.214 0.855-0.071 0.356-0.356 0.499-0.713 0.499l-0.071 0.071c0.214 0.499 0.428 1.212 0.071 1.639-0.071 0.071-0.214 0.143-0.356 0.071l-0.071 0.071v0.285c0.071 0.285 0.214 0.784-0.071 1.069s-0.641 0.214-0.998 0.071l-2.138-0.713c-0.499-0.214-1.14-0.356-2.067-0.499l-1.425-0.071-1.639 0.071-1.14 0.071h-2.922l-1.354-0.143c-0.641-0.071-1.354-0.071-1.996 0.071l-1.497 0.214-0.641 0.143-0.927 0.214-1.996 0.428-2.423 0.499c-1.497 0.285-1.354-1.14-1.069-1.996l0.855-1.497v-0.071c-0.499 0.214-0.927 0.356-1.425 0.428-0.57 0.071-1.069-0.214-0.998-0.927 0.071-0.428 0.214-0.855 0.499-1.212l-0.071-0.071c-0.428 0.143-1.212 0.143-1.354-0.356-0.143-0.428 0.071-0.927 0.356-1.283 0.356-0.499 0.855-0.855 1.497-1.14v-0.071c-1.568-0.071-2.993-0.499-4.49-1.069-1.568-0.641-2.851-1.71-3.849-3.136l-0.855-1.212c-0.359-0.569-0.694-1.225-0.969-1.913l-0.029-0.083-0.071-0.071c-0.57 0.071-1.069-0.071-1.425-0.57-0.285-0.428-0.428-0.927-0.356-1.568 0-0.784 0.285-1.497 0.57-2.209 0.57-1.639 1.568-3.35 2.922-4.561l1.069-0.926c1.425-1.14 3.35-2.067 5.203-2.138 0.927-0.071 1.782 0 2.637 0.071 1.782 0.214 3.35 0.926 4.704 1.996 0.855 0.713 1.639 1.568 2.352 2.637 0.499 0.641 0.927 1.354 1.212 2.138 0 0.071 0 0.071 0 0zM24.588 4.918c-0.356 0.356-0.641 0.713-0.784 1.14-0.071 0.214-0.143 0.356-0.071 0.428 0.071 0.356 1.069 0.499 1.425 0.499l3.065 0.143 2.352 0.285 0.143 0.143c0 0.214-0.214 0.285-0.356 0.285h-0.641c-0.143 0-0.356 0.143-0.356 0.356l-0.214 2.209h0.143l0.855-0.499 0.784-0.428c0.927-0.428 1.782-1.14 2.566-1.853 0.57-0.499 1.069-0.998 1.283-1.71s-0.285-1.283-0.998-1.425l-0.998-0.143-2.423 0.071c-0.214 0-0.285-0.071-0.214-0.285l0.214-0.356 1.283-1.069 1.283-1.14 0.784-0.855v-0.071c-0.078-0.003-0.17-0.004-0.263-0.004-1.301 0-2.534 0.29-3.638 0.81l0.052-0.022c-1.639 0.713-3.207 1.639-4.561 2.851l-0.713 0.641zM2.138 15.537l0.998-0.285 2.78-1.212 0.428-0.071c0.641-0.071 0.641 0.855 0.713 1.283 0 0.641 0.143 1.283 0.428 1.782s0.855 0.641 1.425 0.641c0.784-0.071 1.568-0.143 2.352-0.356l2.566-0.499 0.855-0.214 0.428-0.071c0.428 0.071 0.57 0.499 0.641 0.855l0.071 0.927c0 0.214-0.071 0.285-0.285 0.356-0.143 0-0.356-0.143-0.356-0.285v-0.356l-0.071-0.356-0.071-0.428-0.071-0.071-0.214 0.071-3.706 0.784-1.782 0.214c-0.927 0.071-1.782 0-2.281-0.855-0.214-0.356-0.428-0.713-0.499-1.14l-0.143-0.641v-0.998h-0.071l-1.924 0.784-1.283 0.57v0.499l0.428 1.425c0.784 1.639 1.996 2.922 3.563 3.777l0.356 0.214c1.649 0.793 3.582 1.264 5.624 1.283l0.007 0c1.867-0.142 3.539-0.873 4.858-2.005l-0.011 0.009 0.285-0.214c0.499-0.499 0.998-1.14 1.354-1.853l0.285-0.713c0.356-1.069 0.641-2.138 0.713-3.278l-0.071-1.639c-0.071-0.927-0.214-1.782-0.57-2.566l-1.069-1.782c-0.641-0.927-1.354-1.71-2.281-2.423l-0.428-0.356c-1.283-0.855-2.708-1.283-4.205-1.425l-1.425-0.071c-3.065 0-5.702 1.782-7.626 4.134-0.926 1.212-1.568 2.708-2.067 4.205-0.214 0.713-0.285 1.425 0.071 2.067 0.143 0.214 0.356 0.356 0.57 0.356l0.713-0.071zM22.592 17.817c-0.57-0.071-1.212-0.285-1.568-0.784 0 0.927 0.713 1.853 1.497 2.209l1.212 0.356c0.641 0.143 1.14 0 1.71-0.356 0.641-0.428 1.283-0.927 1.639-1.568 0.445-0.988 0.837-2.154 1.115-3.363l0.025-0.129c0.143-0.927 0.285-1.782 0.143-2.708-0.143-0.499-0.285-0.998-0.57-1.425-0.071-0.071-0.071 0-0.071 0.071 0.285 1.996-0.143 3.991-1.14 5.702l-0.641 0.784c-0.792 0.756-1.867 1.222-3.050 1.222-0.105 0-0.21-0.004-0.313-0.011l0.014 0.001zM22.735 15.465l-0.285 0.57v0.499l0.143 0.428 0.143 0.214 0.214 0.214c0.713 0 1.354-0.214 1.924-0.57s1.069-0.784 1.425-1.425c0-0.039-0.032-0.071-0.071-0.071v0l-0.143-0.214-0.214-0.071-0.143-0.143h-0.143v-0.071l-0.641-0.071-0.143 0.071h-0.143l-0.214 0.071h-0.143c0.641-0.713 0.855-1.568 0.784-2.566-0.143-1.283-1.425-2.281-2.637-1.354-0.641 0.428-0.927 1.14-1.069 1.853-0.214 1.069 0.214 2.423 1.354 2.637zM29.506 16.178c-0.214 0.285-0.428 0.57-0.499 0.927l-0.143 0.57v0.071c0.499 0.499 1.069 0.641 1.782 0.57 0.855-0.071 1.568-0.356 2.067-0.927l0.143-0.214 0.071-0.356 0.071-0.285v-0.428l-0.143-0.356-0.356-0.285-0.428-0.214c0.214-0.499 0.356-0.998 0.285-1.568-0.071-0.998-0.784-1.924-1.853-1.639-0.713 0.143-1.212 0.784-1.425 1.425-0.214 0.499-0.285 0.927-0.214 1.425s0.285 0.927 0.641 1.283zM34.209 17.96c0.514-1.281 0.812-2.766 0.812-4.32 0-0.286-0.010-0.569-0.030-0.849l0.002 0.038-0.143-0.784h-0.071v1.853c-0.214 1.14-0.499 2.138-1.14 3.136-0.694 1.079-1.888 1.783-3.247 1.783-0.036 0-0.072-0-0.108-0.001l0.005 0c-0.641 0-1.212-0.285-1.71-0.784v0.071l0.285 0.855c0.285 0.641 1.14 1.14 1.853 1.354 0.356 0.143 0.713 0.143 1.069 0 1.212-0.356 1.853-1.283 2.423-2.352zM36.561 21.523v1.497c0.285-0.071 0.57-0.143 0.926-0.356 0.499-0.214 0.998-0.499 1.283-0.927 0.285-0.285 0.428-0.784 0.641-1.14v-0.071h-0.071l-0.641-0.356h-0.143l-0.143 0.285c-0.143 0.285-0.57 0.214-0.57-0.143 0-0.641 0.57-0.998 1.212-0.713 0.356 0.214 0.784 0.57 1.14 0.143 0.143-0.143 0.214-0.428 0.214-0.641v-1.782l-0.143-0.428c-0.214-0.927-0.641-1.639-1.212-2.281-0.356-0.499-0.855-0.784-1.497-0.998-0.285-0.214-0.57-0.285-0.784-0.285-0.499-0.071-0.784 0.285-0.998 0.641l-0.071 0.356-0.143 0.784c-0.071 0.784-0.285 1.568-0.499 2.209l0.071 0.071 0.214 0.285c0.641 0.927 0.998 1.924 1.14 3.065l0.071 0.784zM23.448 20.169c-1.212-0.214-2.138-0.713-2.637-1.782h-0.071l-0.713 1.354c-0.499 0.855-1.14 1.497-1.924 2.138-0.713 0.499-1.497 0.998-2.352 1.354h-0.071c-0.071 0.356 0 0.713 0.143 0.927 0.285 0.356 0.641 0.713 0.998 0.927l0.356 0.356c0.499 0.499 1.212 1.069 1.853 1.283 0.356 0.143 0.641 0.356 0.927 0.641l0.784 0.855 0.713 0.855 0.356 0.143 2.993 0.713c1.069 0.214 2.209 0.214 3.35 0.143l1.71-0.356c1.205-0.396 2.248-0.979 3.152-1.724l-0.017 0.013 1.354-1.425c0.81-1.093 1.349-2.432 1.494-3.887l0.003-0.033v-0.356c-0.071-1.497-0.356-2.851-0.998-4.205h-0.071c-0.57 1.354-1.425 2.423-2.922 2.851-0.927 0.285-1.853-0.071-2.637-0.641-0.998-0.641-1.212-1.568-1.354-2.708 0-0.071 0-0.071 0 0-0.499 0.998-1.354 1.782-2.281 2.281-0.641 0.356-1.354 0.499-2.138 0.285zM10.904 26.013h0.499l0.855-0.285 0.285-0.143c0.784-0.641 1.639-0.927 2.708-0.855l0.071-0.071c0-0.285-0.57-0.499-0.784-0.57-1.212-0.285-2.637 0.285-3.421 1.212-0.214 0.214-0.285 0.428-0.356 0.641v0.071h0.143zM12.543 26.512l-0.499 0.641c-0.143 0.214-0.214 0.57-0.285 0.927 0.214 0.071 0.499 0 0.855-0.071 0.57-0.214 1.14-0.428 1.782-0.499h0.071c0.713-0.641 1.568-0.998 2.566-1.069v-0.071c-0.143-0.499-0.499-0.784-1.069-0.927-0.263-0.065-0.565-0.103-0.876-0.103-0.76 0-1.468 0.224-2.060 0.611l0.015-0.009-0.214 0.214-0.285 0.356zM35.777 25.942l-0.285 0.499h0.071l0.285 0.214 0.57 0.499 0.356 0.285 0.713 0.285v-0.071c0-0.214-0.143-0.356-0.285-0.57-0.356-0.499-0.784-0.927-1.425-1.14 0-0.071 0-0.071 0 0-0.071 0-0.071 0 0 0zM34.708 27.724l-0.428 0.285v0.071l0.713 0.285 0.143 0.071c0.285 0.071 0.499 0.214 0.713 0.428l0.428 0.214 0.641 0.499h0.071l-0.071-0.428c-0.214-0.499-0.428-0.998-0.784-1.425-0.214-0.285-0.499-0.499-0.855-0.641h-0.071l-0.499 0.641zM15.038 27.866c-0.784 0.57-1.283 1.212-1.639 1.996-0.214 0.428-0.285 0.855-0.214 1.354l0.143 0.071h0.356l1.425-0.285 1.425-0.356 1.283-0.214 1.212-0.356c0.356-0.071 0.641-0.285 0.784-0.57 0.214-0.356 0.214-0.713 0-1.069s-0.428-0.641-0.784-0.855l-0.57-0.356-1.425-0.143c-0.713 0.071-1.354 0.285-1.996 0.784zM33.14 29.078l-0.713 0.57c-0.030 0.026-0.048 0.064-0.048 0.107s0.019 0.081 0.048 0.107l0 0 0.285 0.143 1.568 0.428 1.996 0.641h0.214l0.071-0.214c-0.071-0.927-0.57-1.497-1.354-1.782-0.214-0.071-0.356-0.143-0.428-0.071-0.499-0.071-1.212-0.143-1.639 0.071z"></path>
<path fill="#ffe868" d="M33.782 4.49l-0.071 0.071v0.071l-0.356 0.855-0.428 0.356-0.926 0.428-1.782 0.356h-1.212l-1.069-0.143-1.782-0.428-0.499-0.214-0.428-0.214-0.57-0.57-0.071-0.143 0.713-0.641c1.61-1.391 3.505-2.506 5.579-3.241l0.123-0.038c0.855-0.285 1.782-0.356 2.708-0.356v0.071l-0.784 0.855-1.283 1.14-1.283 1.069-0.214 0.356c-0.071 0.214 0 0.285 0.214 0.285l2.423-0.071 0.998 0.143z"></path>
<path fill="#ffbb49" d="M33.782 4.49c0.713 0.143 1.212 0.713 0.998 1.425s-0.713 1.212-1.283 1.71c-0.784 0.713-1.639 1.425-2.566 1.853l-0.784 0.428-0.855 0.499h-0.143l0.214-2.209c0-0.214 0.214-0.356 0.356-0.356h0.641c0.143 0 0.356-0.071 0.356-0.285l-0.143-0.143-2.352-0.285-3.065-0.143c-0.356 0-1.354-0.143-1.425-0.499-0.071-0.071 0-0.214 0.071-0.428 0.143-0.428 0.428-0.784 0.784-1.14l0.071 0.143 0.57 0.57 0.428 0.214 0.499 0.214 1.782 0.428 1.069 0.143h1.212l1.782-0.356 0.926-0.428 0.428-0.356 0.356-0.855v-0.071l0.071-0.071z"></path>
<path fill="#ffc98a" d="M16.107 6.343l-0.57 0.143h-0.071l-0.143 0.071-0.071 0.071h-0.143l-0.071 0.071-0.143 0.071h-0.071l-0.071 0.071h-0.071l-0.071 0.071h-0.071l-0.214 0.143h-0.214c0 0.039-0.032 0.071-0.071 0.071v0l-0.143 0.071h-0.57l-0.071 0.071h-1.212l-0.071 0.071h-0.57l-0.071 0.071h-0.356l-0.071 0.071c-0.641-0.926-1.71-1.14-2.78-0.998-1.212 0.214-2.566 0.784-3.35 1.71s-0.926 2.067-0.285 3.065c-0.143 0-0.214 0.071-0.214 0.143l-0.285 0.285v0.143l-0.285 0.214v0.143l-0.143 0.071v0.143l-0.143 0.071v0.143l-0.214 0.214v0.143l-0.071 0.071v0.071l-0.214 0.214v0.143l-0.071 0.071v0.071l-0.071 0.071v0.071c-0.071 0.071-0.143 0.071-0.071 0.143l-0.071 0.071v0.143c-0.071 0.071-0.143 0.071-0.071 0.143l-0.071 0.071v0.143l-0.071 0.143v0.071c-0.071 0.071-0.143 0.071-0.071 0.143v0.071l-0.071 0.143-0.071 0.071v0.071l-0.071 0.071v0.285l-0.713 0.071c-0.214 0-0.428-0.143-0.57-0.356-0.356-0.641-0.285-1.354-0.071-2.067 0.499-1.497 1.14-2.993 2.067-4.205 1.924-2.352 4.561-4.134 7.626-4.134l1.425 0.071c1.497 0.143 2.922 0.57 4.205 1.425z"></path>
<path fill="#ffc293" d="M16.107 6.343l0.428 0.356v0.071h0.071v0.071h-0.143l-0.143 0.071h-0.071l-0.214 0.071h-0.214l-0.071 0.071-0.285 0.071-0.071 0.071h-0.143l-0.071 0.071h-0.071l-0.143 0.214h-0.143l-0.214 0.214-0.143 0.071v0.071l-0.499 0.214h-0.143l-0.143 0.071h-0.428l-0.143 0.071h-1.212v0.071h-0.356l-0.214 0.071-0.143-0.356-0.285-0.499 0.071-0.071h0.356l0.071-0.071h0.57l0.071-0.071h1.212l0.071-0.071h0.57l0.143-0.071c0.039 0 0.071-0.032 0.071-0.071v0h0.214l0.214-0.143h0.071l0.071-0.071h0.071l0.071-0.071h0.071l0.143-0.071 0.071-0.071h0.143l0.071-0.071 0.143-0.071h0.071l0.57-0.143z"></path>
<path fill="#fffbd8" d="M10.904 7.483l0.285 0.499-0.285-0.071-0.285-0.143h-0.57l-0.641 0.143-0.071 0.071h-0.071l-0.143 0.071-0.428 0.143c-0.998 0.356-1.924 0.927-2.78 1.639l-0.855 0.855-0.143 0.214h0.071v0.428l0.57 0.499 0.143 0.143c0.071 0.071 0.143 0.143 0.071 0.214l-0.641-0.285-0.641-0.641c-0.641-0.998-0.499-2.138 0.285-3.065s2.138-1.497 3.35-1.71c1.069-0.143 2.138 0.071 2.78 0.998z"></path>
<path fill="#ffbc9c" d="M16.535 6.699c0.927 0.713 1.639 1.497 2.281 2.423 0.214 0.855 0.356 1.568 0.356 2.138v1.568c0 0.855-0.143 1.639-0.57 2.423l-1.069 1.639c-1.283 1.568-2.851 2.851-4.704 3.849-0.784 0.428-1.568 0.713-2.352 0.855l-2.494 0.214-0.57 0.071-0.356-0.214c-1.568-0.855-2.779-2.138-3.563-3.777l-0.428-1.425c0.641-0.143 1.354-0.214 1.996-0.143 0.356 0 0.784 0 1.069 0.285s0.57 0.713 0.784 1.212c0.214 0.356 0.499 0.57 0.998 0.641h1.782l4.846-0.855c0.214-0.071 0.285 0 0.356 0.143l0.285 0.285v0.356c0 0.143 0.214 0.285 0.356 0.285 0.214-0.071 0.285-0.143 0.285-0.356l-0.071-0.927c-0.071-0.356-0.214-0.784-0.641-0.855l-0.428 0.071-0.855 0.214-2.566 0.499c-0.784 0.214-1.568 0.285-2.352 0.356-0.57 0-1.14-0.143-1.425-0.641s-0.428-1.14-0.428-1.782c-0.071-0.428-0.071-1.354-0.713-1.283l-0.428 0.071-2.78 1.212v-0.071h0.071l0.071-0.071-0.071-0.071 0.071-0.071v-0.143l0.071-0.071v-0.071l0.071-0.071v-0.071l0.071-0.071v-0.071l0.071-0.071v-0.071l0.071-0.071v-0.071c0.071-0.071 0.143-0.071 0.071-0.143v-0.071l0.143-0.143v-0.143l0.071-0.071v-0.071l0.214-0.214v-0.143l0.071-0.071v-0.071l0.143-0.071v-0.143l0.143-0.071v-0.143l0.214-0.143v-0.143l0.214-0.143v-0.071l0.143-0.143h0.071l0.641 0.285 0.641 0.143c1.71 0.356 3.421-0.57 4.347-1.924 0.499-0.641 0.641-1.283 0.57-2.067l0.214-0.071h0.356v-0.071h1.212l0.143-0.071h0.428l0.143-0.071h0.143l0.499-0.214v-0.071l0.143-0.071 0.214-0.214h0.143l0.143-0.214h0.071l0.071-0.071h0.143l0.071-0.071 0.285-0.071 0.071-0.071h0.214l0.214-0.071h0.071l0.143-0.071h0.143v-0.071h-0.071v-0.071zM10.548 12.757c0.071 0.356 0.356 0.57 0.713 0.641 0.784 0.214 1.568-0.071 2.209-0.57s1.14-1.425 0.499-2.209l-0.57-0.285c-0.855-0.285-1.782 0.285-2.352 0.927l-0.356 0.499c-0.214 0.285-0.285 0.713-0.143 0.998z"></path>
<path fill="#fffdeb" d="M11.189 7.982l0.143 0.356c0.071 0.784-0.071 1.425-0.57 2.067l0.214-0.57v-0.143l0.143-0.356c0.071-0.071 0-0.214-0.071-0.285h-0.57l-0.143 0.071h-0.071l-0.143 0.071h-0.071l-0.143 0.071h-0.071v0.071h-0.071l-0.143 0.071h-0.071l-0.143 0.071h-0.071l-0.143 0.071h-0.071l-0.071 0.071h-0.143l-0.071 0.071-0.428 0.143-0.499 0.285-0.428 0.428h-0.143l-0.143 0.214h-0.143l-0.356 0.428h-0.143l-0.57 0.57v0.285l0.071 0.071 0.356 0.214-0.641-0.143c0.071-0.071 0-0.143-0.071-0.214l-0.143-0.143-0.57-0.499v-0.428h-0.071l0.143-0.214 0.855-0.855c0.855-0.713 1.782-1.283 2.78-1.639l0.428-0.143 0.143-0.071h0.071l0.071-0.071 0.641-0.143h0.57l0.285 0.143 0.285 0.071z"></path>
<path fill="#fff" d="M10.762 10.405c-0.927 1.354-2.637 2.281-4.347 1.924l-0.356-0.214-0.071-0.071v-0.285l0.57-0.57h0.143l0.356-0.428h0.143l0.143-0.214h0.143l0.428-0.428 0.499-0.285 0.428-0.143 0.071-0.071h0.143l0.071-0.071h0.071l0.143-0.071h0.071l0.143-0.071h0.071l0.143-0.071h0.071v-0.071h0.071l0.143-0.071h0.071l0.143-0.071h0.071l0.143-0.071h0.57c0.071 0.071 0.143 0.214 0.071 0.285l-0.143 0.356v0.143l-0.214 0.57z"></path>
<path fill="#f28773" d="M18.815 9.123l1.069 1.782c0.356 0.784 0.499 1.639 0.57 2.566v0.784l-0.071 0.713c-0.143 1.069-0.428 2.138-0.784 3.136l-0.285 0.641h-0.214l-0.214 0.214h-0.143l-0.713 0.428-0.428 0.285-0.356 0.214-0.57 0.356-2.494 0.998-2.423 0.499-0.499 0.071h-0.143l-0.143 0.071h-0.641l-0.641 0.071h-1.212c-0.143 0.071-0.285 0-0.499-0.143l2.494-0.214c0.784-0.143 1.568-0.428 2.352-0.855 1.853-0.998 3.421-2.281 4.704-3.849l1.069-1.639c0.428-0.784 0.57-1.568 0.57-2.423v-1.568c0-0.57-0.143-1.283-0.356-2.138z"></path>
<path fill="#fff" d="M21.024 17.033c0.356 0.499 0.998 0.713 1.568 0.784 1.283 0.071 2.352-0.356 3.35-1.212l0.641-0.784c0.998-1.71 1.425-3.706 1.14-5.702 0-0.071 0-0.143 0.071-0.071 0.285 0.428 0.428 0.927 0.57 1.425 0.143 0.927 0 1.782-0.143 2.708-0.303 1.339-0.695 2.504-1.189 3.615l0.049-0.122c-0.356 0.641-0.998 1.14-1.639 1.568-0.57 0.356-1.069 0.499-1.71 0.356l-1.212-0.356c-0.784-0.356-1.497-1.283-1.497-2.209zM10.548 12.757c-0.143-0.285-0.071-0.713 0.143-0.998l0.356-0.499c0.57-0.641 1.497-1.212 2.352-0.927l0.57 0.285c0.641 0.784 0.143 1.71-0.499 2.209s-1.425 0.784-2.209 0.57c-0.356-0.071-0.641-0.285-0.713-0.641z"></path>
<path fill="#fff" d="M24.303 14.895c-0.428 0.499-0.927 0.641-1.568 0.57-1.14-0.214-1.568-1.568-1.354-2.637 0.143-0.713 0.428-1.425 1.069-1.853 1.212-0.927 2.494 0.071 2.637 1.354 0.071 0.998-0.143 1.853-0.784 2.566z"></path>
<path fill="#ffc293" d="M4.49 11.261l0.641 0.641h-0.071l-0.143 0.143v0.071l-0.214 0.143v0.143l-0.214 0.143v0.143l-0.143 0.071v0.143l-0.143 0.071v0.071l-0.071 0.071v0.143l-0.214 0.214v0.071l-0.071 0.071v0.143l-0.143 0.143v0.071c0.071 0.071 0 0.071-0.071 0.143v0.071l-0.071 0.071v0.071l-0.071 0.071v0.071l-0.071 0.071v0.071l-0.071 0.071v0.071l-0.071 0.071v0.143l-0.071 0.071 0.071 0.071-0.071 0.071h-0.071v0.071l-0.998 0.285v-0.285l0.071-0.071v-0.071l0.071-0.071 0.071-0.143v-0.071c-0.071-0.071 0-0.071 0.071-0.143v-0.071l0.071-0.143v-0.143l0.071-0.071c-0.071-0.071 0-0.071 0.071-0.143v-0.143l0.071-0.071c-0.071-0.071 0-0.071 0.071-0.143v-0.071l0.071-0.071v-0.071l0.071-0.071v-0.143l0.214-0.214v-0.071l0.071-0.071v-0.143l0.214-0.214v-0.143l0.143-0.071v-0.143l0.143-0.071v-0.143l0.285-0.214v-0.143l0.285-0.285c0-0.071 0.071-0.143 0.214-0.143z"></path>
<path fill="#fff" d="M32.071 15.252c-0.214 0.499-0.57 0.855-0.927 1.069-0.57 0.356-1.14 0.285-1.639-0.143-0.356-0.356-0.57-0.784-0.641-1.283s0-0.927 0.214-1.425c0.214-0.641 0.713-1.283 1.425-1.425 1.069-0.285 1.782 0.641 1.853 1.639 0.071 0.57-0.071 1.069-0.285 1.568z"></path>
<path fill="#fff" d="M34.209 17.96c-0.57 1.069-1.212 1.996-2.423 2.352-0.356 0.143-0.713 0.143-1.069 0-0.713-0.214-1.568-0.713-1.853-1.354l-0.285-0.855v-0.071c0.499 0.499 1.069 0.784 1.71 0.784 1.425 0 2.566-0.641 3.35-1.782 0.641-0.998 0.926-1.996 1.14-3.136v-1.853h0.071l0.143 0.784v1.996c-0.143 0.998-0.356 2.209-0.784 3.136z"></path>
<path fill="#f28773" d="M37.559 13.612l0.285 0.356v0.143l0.214 0.143v0.143l0.285 0.214v0.143l0.214 0.143v0.143l0.214 0.143v0.143l0.143 0.071v0.143l0.143 0.071v0.143l0.285 0.214v0.143l0.143 0.143h0.143v0.143h0.071l0.57 0.499 0.143 0.428v1.782c0 0.214-0.071 0.499-0.214 0.641-0.356 0.428-0.784 0.071-1.14-0.143-0.641-0.285-1.212 0.071-1.212 0.713 0 0.356 0.428 0.428 0.57 0.143l0.143-0.285h0.143l0.641 0.356c-0.499 0.784-1.14 1.283-1.924 1.568h-0.285c-0.356-0.071-0.428-0.214-0.57-0.57l-0.071-0.784c-0.143-1.14-0.499-2.138-1.14-3.065l-0.214-0.285-0.071-0.071c0.214-0.641 0.428-1.425 0.499-2.209l0.143-0.784 0.071-0.356c0.214-0.356 0.499-0.713 0.998-0.641 0.214 0 0.499 0.071 0.784 0.285z"></path>
<path fill="#ad6560" d="M20.454 13.47l0.071 1.639c-0.071 1.14-0.356 2.209-0.713 3.278l-0.285 0.713c-0.356 0.713-0.855 1.354-1.354 1.853l-0.285 0.214c-0.641 0.57-1.425 0.998-2.209 1.354l0.855-0.641 0.285-0.285c0.927-0.713 1.853-1.71 2.494-2.851l0.285-0.641c0.356-0.998 0.641-2.067 0.784-3.136l0.071-0.713v-0.784z"></path>
<path fill="#f4986e" d="M37.559 13.612c0.641 0.214 1.14 0.499 1.497 0.998 0.57 0.641 0.998 1.354 1.212 2.281l-0.57-0.499h-0.071v-0.143h-0.143l-0.143-0.143v-0.143l-0.285-0.214v-0.143l-0.143-0.071v-0.143l-0.143-0.071v-0.143l-0.214-0.143v-0.143l-0.214-0.143v-0.143l-0.285-0.214v-0.143l-0.214-0.143v-0.143l-0.285-0.356z"></path>
<path fill="#ad6560" d="M6.343 15.608l-0.071-0.285c-0.071-0.143-0.143-0.285-0.356-0.285l-0.641 0.143-0.926 0.214 1.924-0.784h0.071v0.998z"></path>
<path fill="#81564f" d="M22.735 15.465c0.641 0.071 1.14-0.071 1.568-0.57h0.143l0.214-0.071h0.143l0.143-0.071 0.641 0.071v0.071h0.143l0.143 0.143 0.214 0.071 0.143 0.214c0.039 0 0.071 0.032 0.071 0.071v0c-0.356 0.641-0.855 1.069-1.425 1.425s-1.212 0.57-1.924 0.57l-0.214-0.214-0.143-0.214-0.143-0.428v-0.499l0.285-0.57z"></path>
<path fill="#f28773" d="M6.343 15.608l0.143 0.641c0.071 0.428 0.285 0.784 0.499 1.14 0.499 0.855 1.354 0.927 2.281 0.855l1.782-0.214 3.706-0.784c0.214 0 0.285 0.285 0.356 0.428l0.071 0.356-0.285-0.285c-0.071-0.143-0.143-0.214-0.356-0.143l-4.846 0.855h-1.782c-0.499-0.071-0.784-0.285-0.998-0.641-0.214-0.499-0.499-0.927-0.784-1.212s-0.713-0.285-1.069-0.285c-0.641-0.071-1.354 0-1.996 0.143v-0.499l1.283-0.57 0.926-0.214 0.641-0.143c0.214 0 0.285 0.143 0.356 0.285l0.071 0.285z"></path>
<path fill="#81564f" d="M32.071 15.252l0.428 0.214 0.356 0.285 0.143 0.356v0.428l-0.071 0.285-0.071 0.356-0.143 0.214c-0.499 0.57-1.212 0.855-2.067 0.927-0.713 0.071-1.283-0.071-1.782-0.57v-0.071l0.143-0.57c0.071-0.356 0.285-0.641 0.499-0.927 0.499 0.428 1.069 0.499 1.639 0.143 0.356-0.214 0.713-0.57 0.926-1.069z"></path>
<path fill="#ad6560" d="M15.109 17.675c-0.071-0.143-0.143-0.428-0.356-0.428l0.214-0.071 0.071 0.071 0.071 0.428z"></path>
<path fill="#ffbc9c" d="M31.857 20.953c0.071 0.784 0.641 1.283 1.283 1.568 0.499 0.214 0.998 0.285 1.497 0.356 0.428 0.071 0.855 0 1.212-0.214-0.148 1.488-0.687 2.827-1.512 3.941l0.015-0.021-1.354 1.425c-0.888 0.732-1.931 1.314-3.068 1.691l-0.068 0.020-1.71 0.356c-1.14 0.071-2.281 0.071-3.35-0.143-1.297-0.232-2.423-0.528-3.512-0.904l0.162 0.049-0.713-0.855-0.784-0.855c-0.285-0.285-0.57-0.499-0.927-0.641-0.641-0.214-1.354-0.784-1.853-1.283l-0.356-0.356c-0.356-0.214-0.713-0.57-0.998-0.927-0.143-0.214-0.214-0.57-0.143-0.927h0.071c0.855-0.356 1.639-0.855 2.352-1.354l0.214 0.071c0.285 0.356 0.784 0.499 1.283 0.499 0.641 0 1.354-0.071 1.996-0.285 0.855-0.214 1.425-0.713 1.782-1.497v-0.285l0.071-0.214c0.784 0.214 1.497 0.071 2.138-0.285 0.927-0.499 1.782-1.283 2.281-2.281 0-0.071 0-0.071 0 0 0.143 1.14 0.356 2.067 1.354 2.708 0.784 0.57 1.71 0.927 2.637 0.641zM27.439 21.024c-0.499-0.214-1.069-0.428-1.212-0.927l-0.071-0.071-0.214 0.143c-0.285 0.356 0.071 0.713 0.356 0.855 0.784 0.428 1.639 0.57 2.494 0.356v-0.071l-1.354-0.285z"></path>
<path fill="#f28773" d="M35.849 22.664c-0.356 0.214-0.784 0.285-1.212 0.214-0.499-0.071-0.998-0.143-1.497-0.356-0.641-0.285-1.212-0.784-1.283-1.568 1.497-0.428 2.352-1.497 2.922-2.851h0.071c0.641 1.354 0.926 2.708 0.998 4.205v0.356zM23.448 20.169l-0.071 0.214v0.285c-0.356 0.784-0.927 1.283-1.782 1.497-0.641 0.214-1.354 0.285-1.996 0.285-0.499 0-0.998-0.143-1.283-0.499l-0.214-0.071c0.784-0.641 1.425-1.283 1.924-2.138l0.713-1.354h0.071c0.499 1.069 1.425 1.568 2.637 1.782z"></path>
<path fill="#f67954" d="M19.314 18.744c-0.641 1.14-1.568 2.138-2.494 2.851l-0.285 0.285-0.855 0.641c-0.903 0.422-1.96 0.668-3.075 0.668-0.759 0-1.491-0.114-2.18-0.326l0.053 0.014c-0.998-0.214-1.996-0.499-3.065-0.998l0.57-0.071c0.214 0.143 0.356 0.214 0.499 0.143h1.212l0.641-0.071h0.641l0.143-0.071h0.143l0.499-0.071 2.423-0.499 2.494-0.998 0.57-0.356 0.356-0.214 0.428-0.285 0.713-0.428h0.143l0.214-0.214h0.214z"></path>
<path fill="#564341" d="M27.439 21.024l1.354 0.285v0.071c-0.855 0.214-1.71 0.071-2.494-0.356-0.285-0.143-0.641-0.499-0.356-0.855l0.214-0.143 0.071 0.071c0.143 0.499 0.713 0.713 1.212 0.927z"></path>
<path fill="#ad6560" d="M39.341 20.526h0.071v0.071c-0.214 0.356-0.356 0.855-0.641 1.14-0.285 0.428-0.784 0.713-1.283 0.927-0.356 0.214-0.641 0.285-0.926 0.356v-1.497c0.143 0.356 0.214 0.499 0.57 0.57h0.285c0.784-0.285 1.425-0.784 1.924-1.568z"></path>
<path fill="#f28773" d="M14.539 24.089l-0.428 0.428-1.354 0.713-1.853 0.784h-0.143v-0.071c0.071-0.214 0.143-0.428 0.356-0.641 0.784-0.927 2.209-1.497 3.421-1.212z"></path>
<path fill="#ad6560" d="M14.539 24.089c0.214 0.071 0.784 0.285 0.784 0.57l-0.071 0.071c-1.069-0.071-1.924 0.214-2.708 0.855l-0.285 0.143-0.855 0.285h-0.499l1.853-0.784 1.354-0.713 0.428-0.428z"></path>
<path fill="#f28773" d="M15.964 25.443c-0.071 0.428-0.285 0.784-0.641 0.998l-0.998 0.713-0.428 0.214v-0.214l-0.071-0.071h-0.071l-0.071-0.071h-0.071l-0.071-0.071h-0.071l-0.071-0.071h-0.071c-0.071-0.071-0.071-0.143-0.143-0.071l-0.071-0.071h-0.071l-0.071-0.071h-0.214l-0.143-0.071h-0.071v-0.071l0.285-0.356 0.214-0.214c0.356-0.214 0.713-0.428 1.14-0.499 0.641-0.143 1.212-0.143 1.782 0z"></path>
<path fill="#ad6560" d="M15.964 25.443c0.57 0.143 0.927 0.428 1.069 0.927v0.071c-0.998 0.071-1.853 0.428-2.566 1.069h-0.071c-0.641 0.071-1.212 0.285-1.782 0.499-0.356 0.071-0.641 0.143-0.855 0.071l1.497-0.428 0.641-0.285 0.428-0.214 0.998-0.713c0.356-0.214 0.57-0.57 0.641-0.998z"></path>
<path fill="#f67954" d="M35.849 26.655l-0.071-0.713c-0.071 0-0.071 0 0 0 0-0.071 0-0.071 0 0 0.641 0.214 1.069 0.641 1.425 1.14 0.143 0.214 0.285 0.356 0.285 0.57v0.071l-0.713-0.285-0.356-0.285-0.57-0.499z"></path>
<path fill="#ad6560" d="M35.777 25.942l0.071 0.713-0.285-0.214h-0.071z"></path>
<path fill="#f4986e" d="M12.543 26.512v0.071h0.071l0.143 0.071h0.214l0.071 0.071h0.071l0.071 0.071c0.071-0.071 0.071 0 0.143 0.071h0.071l0.071 0.071h0.071l0.071 0.071h0.071l0.071 0.071h0.071l0.071 0.071v0.214l-0.641 0.285-1.497 0.428c0.071-0.356 0.143-0.713 0.285-0.927l0.499-0.641z"></path>
<path fill="#f67954" d="M36.134 27.724l-0.143 0.143v0.071h-0.071l-0.285 0.214h-0.071l-0.143 0.143-0.285 0.143-0.143-0.071-0.285-0.641 0.499-0.641h0.071c0.356 0.143 0.641 0.356 0.855 0.641z"></path>
<path fill="#f28773" d="M19.029 27.581l0.143 0.428v0.285c-0.143 0.428-0.428 0.784-0.784 1.069l-0.998 0.713-1.497-1.639h-0.143l-0.285-0.356h-0.143l-0.285-0.214c0.641-0.499 1.283-0.713 1.996-0.784l1.425 0.143 0.57 0.356z"></path>
<path fill="#ad6560" d="M19.029 27.581c0.356 0.214 0.57 0.499 0.784 0.855s0.214 0.713 0 1.069c-0.143 0.285-0.428 0.499-0.784 0.57l-1.212 0.356-1.283 0.214-1.425 0.356c0.784-0.214 1.497-0.57 2.281-0.927l0.998-0.713c0.356-0.285 0.641-0.641 0.784-1.069v-0.285l-0.143-0.428zM34.708 27.724l0.285 0.641-0.713-0.285v-0.071l0.428-0.285z"></path>
<path fill="#f4986e" d="M36.134 27.724c0.356 0.428 0.57 0.927 0.784 1.425l0.071 0.428h-0.071l-0.641-0.499-0.428-0.214c-0.214-0.214-0.428-0.356-0.713-0.428l0.285-0.143 0.143-0.143h0.071l0.285-0.214h0.071v-0.071l0.143-0.143zM15.038 27.866l0.285 0.214h0.143l0.285 0.356h0.143l1.497 1.639c-0.784 0.356-1.497 0.713-2.281 0.927l-1.425 0.285h-0.356l-0.143-0.071c-0.071-0.499 0-0.927 0.214-1.354 0.356-0.784 0.855-1.425 1.639-1.996z"></path>
<path fill="#f67954" d="M34.779 29.007l-1.069 1.069-0.499-0.57-0.071-0.428c0.428-0.214 1.14-0.143 1.639-0.071z"></path>
<path fill="#f4986e" d="M34.779 29.007c0.071-0.071 0.214 0 0.428 0.071 0.784 0.285 1.283 0.855 1.354 1.782l-0.071 0.214h-0.214l-1.996-0.641-0.57-0.356 1.069-1.069z"></path>
<path fill="#ad6560" d="M33.14 29.078l0.071 0.428 0.499 0.57 0.57 0.356-1.568-0.428-0.285-0.143c-0.030-0.026-0.048-0.064-0.048-0.107s0.019-0.081 0.048-0.107l0.713-0.57z"></path>
</svg>
